<?xml version="1.0" standalone="no"?><!DOCTYPE svg PUBLIC "-//W3C//DTD SVG 1.1//EN" "http://www.w3.org/Graphics/SVG/1.1/DTD/svg11.dtd"><svg t="1679880982454" class="icon" viewBox="0 0 1962 1024" version="1.1" xmlns="http://www.w3.org/2000/svg" p-id="9673" width="245.25" height="128" xmlns:xlink="http://www.w3.org/1999/xlink"><path d="M119.892514 42.74856s-14.24952 589.635317 526.249521 855.462572 1031.861804-180.821497 1031.861804-180.821497S2217.028791 43.731286 1810.671785 18.671785C1492.268714 0 119.892514 42.74856 119.892514 42.74856z" fill="#2AA350" p-id="9674"></path><path d="M281.059501 53.067179S334.126679 757.681382 933.589251 807.800384s786.180422-411.761996 791.09405-418.149712 113.996161-236.345489 61.911709-317.911708S276.637236 17.68906 281.059501 53.067179z" fill="#DB413C" p-id="9675"></path><path d="M625.996161 435.347409h40.291747v24.568138h-40.291747zM694.786948 440.261036h19.163148v19.163148h-19.163148zM741.957774 438.295585h47.170825v21.619962h-47.170825zM1176.81382 435.347409h40.291746v24.568138h-40.291746zM1246.095969 440.261036h19.163148v19.163148h-19.163148zM1292.775432 438.295585h47.170825v21.619962h-47.170825z" fill="#231815" p-id="9676"></path><path d="M813.205374 337.566219m-35.869481 0a35.869482 35.869482 0 1 0 71.738963 0 35.869482 35.869482 0 1 0-71.738963 0Z" fill="#231815" p-id="9677"></path><path d="M1152.737044 337.566219m-35.869482 0a35.869482 35.869482 0 1 0 71.738964 0 35.869482 35.869482 0 1 0-71.738964 0Z" fill="#231815" p-id="9678"></path><path d="M869.220729 459.915547h238.310941a117.435701 117.435701 0 0 1-122.349328 101.712092 106.62572 106.62572 0 0 1-115.961613-101.712092z" fill="#231815" p-id="9679"></path><path d="M936.537428 565.558541v-34.886756l24.568138-6.879079 10.809981-3.930902 16.214971 2.948177 23.585413 3.930902h9.335892a19.654511 19.654511 0 0 1 7.861805 3.439539l14.740883 9.827256 5.896353 13.758157v6.879079l-3.930902 6.387716-15.723609 9.335892h-14.24952l-11.792706 2.948177h-34.395394l-18.671785-3.930902-17.197697-5.896354" fill="#D73266" p-id="9680"></path><path d="M487.923225 378.349328m-20.637237 0a20.637236 20.637236 0 1 0 41.274473 0 20.637236 20.637236 0 1 0-41.274473 0Z" fill="#FFFFFF" p-id="9681"></path></svg>