<?xml version="1.0" standalone="no"?><!DOCTYPE svg PUBLIC "-//W3C//DTD SVG 1.1//EN" "http://www.w3.org/Graphics/SVG/1.1/DTD/svg11.dtd"><svg t="1679880906119" class="icon" viewBox="0 0 1024 1024" version="1.1" xmlns="http://www.w3.org/2000/svg" p-id="4383" data-spm-anchor-id="a313x.7781069.0.i0" width="48" height="48" xmlns:xlink="http://www.w3.org/1999/xlink"><path d="M511.703541 988.396141a476.413212 476.413212 0 0 0 396.216988-211.739206H115.486552a476.413212 476.413212 0 0 0 396.216989 211.739206z m458.768278-247.029073l-15.351092 26.4674a511.70308 511.70308 0 0 1-886.657923 0l-15.351093-26.4674z m12.704352-299.963875A476.413212 476.413212 0 0 0 40.407359 441.403193zM2.911875 457.195409a511.70308 511.70308 0 0 1 1017.583331 0l2.117392 19.497652H0.794483z" fill="#d81e06" p-id="4384"></path><path d="M514.438505 922.227639a409.450689 409.450689 0 0 0 317.167685-149.981937H197.359045a409.450689 409.450689 0 0 0 317.07946 149.981937z m369.837813-176.449338l-15.086419 20.997471a436.800336 436.800336 0 0 1-709.502787 0l-14.998194-20.997471z m35.289867-299.963874a410.332935 410.332935 0 0 0-809.902461 0z m-838.134355 11.557431a436.800336 436.800336 0 0 1 866.630923 0l1.852718 14.90997H79.314438z" fill="#d81e06" p-id="4385"></path><path d="M481.707153 665.758526h102.075942a11.380982 11.380982 0 0 1 11.380982 11.380983A11.380982 11.380982 0 0 1 583.783095 688.432266H481.707153a11.380982 11.380982 0 0 1-11.380982-11.380982 11.380982 11.380982 0 0 1 11.380982-11.292758z" fill="#d81e06" p-id="4386"></path><path d="M481.707153 529.627862a11.380982 11.380982 0 0 1 11.380982 11.380983v136.042439A11.380982 11.380982 0 0 1 481.707153 688.432266a11.380982 11.380982 0 0 1-11.380982-11.380982V541.008845A11.380982 11.380982 0 0 1 481.707153 529.627862zM278.790415 529.627862h88.224669a11.380982 11.380982 0 0 1 11.380982 11.380983 11.380982 11.380982 0 0 1-11.380982 11.380982h-88.224669a11.380982 11.380982 0 0 1-11.380983-11.380982A11.380982 11.380982 0 0 1 278.790415 529.627862zM278.790415 597.649082h88.224669A11.380982 11.380982 0 0 1 378.043167 609.030064a11.380982 11.380982 0 0 1-11.380982 11.380983h-88.224669A11.380982 11.380982 0 0 1 267.409432 609.030064a11.380982 11.380982 0 0 1 11.380983-11.380982zM278.790415 665.758526h88.224669a11.380982 11.380982 0 0 1 11.380982 11.380983A11.380982 11.380982 0 0 1 366.662185 688.432266h-88.224669a11.380982 11.380982 0 0 1-11.380982-11.380982 11.380982 11.380982 0 0 1 11.733881-11.292758z" fill="#d81e06" p-id="4387"></path><path d="M277.996393 529.627862a10.498736 10.498736 0 0 1 10.498735 10.498736v137.806933A10.498736 10.498736 0 0 1 277.996393 688.432266a10.498736 10.498736 0 0 1-10.498736-10.498735V540.126598A10.498736 10.498736 0 0 1 277.996393 529.627862z" fill="#d81e06" p-id="4388"></path><path d="M887.54063 529.627862a11.380982 11.380982 0 0 1 11.380983 11.380983v136.042439a11.380982 11.380982 0 0 1-11.380983 11.380982 11.380982 11.380982 0 0 1-11.380982-11.380982V541.008845a11.380982 11.380982 0 0 1 11.380982-11.380983zM989.616572 529.627862a11.380982 11.380982 0 0 1 11.380983 11.380983v136.042439a11.380982 11.380982 0 0 1-11.380983 11.380982 11.380982 11.380982 0 0 1-11.380982-11.380982V541.008845a11.380982 11.380982 0 0 1 11.380982-11.380983z" fill="#d81e06" p-id="4389"></path><path d="M878.453489 547.802144a11.380982 11.380982 0 1 1 18.174282-13.586599l102.075942 136.130664a11.380982 11.380982 0 1 1-18.174282 13.586599z" fill="#d81e06" p-id="4390"></path><path d="M167.892006 529.627862a11.380982 11.380982 0 0 1 11.380982 11.380983v136.042439A11.380982 11.380982 0 0 1 167.892006 688.432266a11.380982 11.380982 0 0 1-11.380983-11.380982V541.008845A11.380982 11.380982 0 0 1 167.892006 529.627862zM31.761342 529.627862a11.380982 11.380982 0 0 1 11.380982 11.380983v136.042439A11.380982 11.380982 0 0 1 31.761342 688.432266a11.380982 11.380982 0 0 1-11.380983-11.380982V541.008845A11.380982 11.380982 0 0 1 31.761342 529.627862z" fill="#d81e06" p-id="4391"></path><path d="M22.497751 547.272796a11.380982 11.380982 0 0 1 18.527181-13.057251l68.02122 96.429563a11.380982 11.380982 0 1 1-18.527181 13.674824z" fill="#d81e06" p-id="4392"></path><path d="M158.628415 534.391994A11.380982 11.380982 0 1 1 177.243821 547.272796l-68.197669 97.047136a11.380982 11.380982 0 1 1-18.527181-13.057251z" fill="#d81e06" p-id="4393"></path><path d="M728.559777 529.627862a55.316867 55.316867 0 0 1 55.316867 55.316868v48.170669a55.316867 55.316867 0 1 1-110.633735 0v-48.170669A55.316867 55.316867 0 0 1 728.559777 529.627862z m0 22.67374a34.231172 34.231172 0 0 0-34.231172 34.231172v44.994581a34.231172 34.231172 0 1 0 68.462343 0v-44.994581a34.231172 34.231172 0 0 0-34.231171-34.231172z" fill="#d81e06" p-id="4394"></path><path d="M762.879173 609.030064a11.380982 10.498736 90 1 0 20.997471 0 11.380982 10.498736 90 1 0-20.997471 0Z" fill="#d81e06" p-id="4395"></path><path d="M673.331134 609.030064a11.380982 10.498736 90 1 0 20.997471 0 11.380982 10.498736 90 1 0-20.997471 0Z" fill="#d81e06" p-id="4396"></path><path d="M526.61351 459.048127h-24.261784a50.993859 50.993859 0 0 1-5.558154-17.644934 17.644934 17.644934 0 0 1 35.289867 0 50.993859 50.993859 0 0 1-5.469929 17.644934z m-12.175005-299.963874a17.644934 17.644934 0 0 1 17.644934 17.644934c0 9.704714-13.674824 35.289868-17.644934 35.289867s-17.644934-25.585154-17.644933-35.289867a17.644934 17.644934 0 0 1 17.644933-17.644934z m167.626871 35.289867a17.644934 17.644934 0 0 1 17.644934 17.644934c0 9.704714-13.674824 35.289868-17.644934 35.289868s-17.644934-25.585154-17.644933-35.289868a17.644934 17.644934 0 0 1 17.644933-17.644934z m-335.253742 0a17.644934 17.644934 0 0 1 17.644934 17.644934c0 9.704714-13.674824 35.289868-17.644934 35.289868s-17.644934-25.585154-17.644933-35.289868a17.644934 17.644934 0 0 1 17.644933-17.644934z m-105.869602 114.69207a17.644934 17.644934 0 0 1 17.644933 17.644934c0 9.704714-13.674824 35.289868-17.644933 35.289867s-17.644934-25.585154-17.644934-35.289867a17.644934 17.644934 0 0 1 17.644934-17.644934z m194.094271-35.289868a17.644934 17.644934 0 0 1 17.644934 17.644934c0 9.704714-13.674824 35.289868-17.644934 35.289868s-17.644934-25.585154-17.644933-35.289868a17.644934 17.644934 0 0 1 17.644933-17.644934z m-88.224669 105.869603a17.644934 17.644934 0 0 1 17.644934 17.644934c0 9.704714-13.674824 35.289868-17.644934 35.289867s-17.644934-25.585154-17.644933-35.289867a17.644934 17.644934 0 0 1 17.644933-17.644934z m264.674007-105.869603a17.644934 17.644934 0 0 1 17.644934 17.644934c0 9.704714-13.674824 35.289868-17.644934 35.289868s-17.644934-25.585154-17.644934-35.289868a17.644934 17.644934 0 0 1 17.644934-17.644934z m79.402202 105.869603a17.644934 17.644934 0 0 1 17.644934 17.644934c0 9.704714-13.674824 35.289868-17.644934 35.289867s-17.644934-25.585154-17.644934-35.289867a17.644934 17.644934 0 0 1 17.644934-17.644934z m105.869603-70.579735a17.644934 17.644934 0 0 1 17.644934 17.644934c0 9.704714-13.674824 35.289868-17.644934 35.289867s-17.644934-25.585154-17.644934-35.289867a17.644934 17.644934 0 0 1 17.644934-17.644934z m-282.318941 555.815414a17.644934 17.644934 0 0 1-17.644933-17.644933c0-9.704714 13.674824-35.289868 17.644933-35.289868s17.644934 25.585154 17.644934 35.289868a17.644934 17.644934 0 0 1-17.644934 17.644933z m167.626871-35.289867a17.644934 17.644934 0 0 1-17.644933-17.644934c0-9.704714 13.674824-35.289868 17.644933-35.289868s17.644934 25.585154 17.644934 35.289868a17.644934 17.644934 0 0 1-17.644934 17.644934z m-335.253742 0a17.644934 17.644934 0 0 1-17.644933-17.644934c0-9.704714 13.674824-35.289868 17.644933-35.289868s17.644934 25.585154 17.644934 35.289868a17.644934 17.644934 0 0 1-17.644934 17.644934z" fill="#d81e06" p-id="4397"></path></svg>